<svg id="Layer_1" data-name="Layer 1" xmlns="http://www.w3.org/2000/svg" viewBox="0 0 353.2 353.38"><path d="M418.59,226v20.71c-.58,4.76-1.08,9.53-1.76,14.27-5,34.81-19,65.55-42.32,91.88-27.36,30.93-61.43,50.2-102.16,57.44-6.64,1.18-13.38,1.85-20.07,2.75H231.57c-5.91-.74-11.85-1.28-17.72-2.26-36.9-6.17-69.06-22-95.52-48.49-39.69-39.67-57.16-87.89-52.08-143.72,3.4-37.47,18.07-70.6,43.12-98.74C142.65,82.47,184.53,62.33,234.5,59.9c34.85-1.7,67.62,6.43,97.44,24.62,45.85,28,74,68.5,83.9,121.43C417.08,212.58,417.69,219.32,418.59,226Zm-39.21,10.18c-.17-75.72-61.82-137.3-137.45-137.3s-137.65,62-137.46,137.64S166.3,373.84,241.92,373.84,379.54,311.88,379.38,236.19Z" transform="translate(-65.39 -59.68)"/><path d="M225.31,248.55c0,12.56,0,24.86,0,37.16a24,24,0,0,1-.3,4.8,10.82,10.82,0,0,1-11.84,8.76,10.58,10.58,0,0,1-9.88-10.51c-.16-12.08-.07-24.15-.08-36.23v-4.25h-3.93q-18.11,0-36.22,0c-9.72,0-14.86-4.49-15.07-14.34-.35-16.55-.27-33.11-.11-49.67a10.57,10.57,0,0,1,11-10.87c6.35,0,10.9,4.6,11,11.63.16,12.19,0,24.38.06,36.57v4.31H203.2v-3.74q0-18.81,0-37.61a11,11,0,0,1,16.94-9.45c3.7,2.37,5.17,6,5.16,10.3,0,12.19,0,24.38,0,36.58v3.94h33.22v-3.79c0-12.3,0-24.61,0-36.92,0-6.34,3.93-11.05,9.46-11.71,7.07-.85,12.55,3.92,12.6,11.24.1,12.42,0,24.84,0,37.26v3.92h33.28v-3.85c0-12.07-.06-24.15,0-36.22.05-8,4.82-12.84,11.95-12.41a10.63,10.63,0,0,1,10,9.31,37.06,37.06,0,0,1,.21,4.47q0,49.17,0,98.33a23.78,23.78,0,0,1-.56,6.15c-1.3,4.81-5.86,7.82-11,7.61a10.62,10.62,0,0,1-10.15-8.72,28.43,28.43,0,0,1-.38-5.14c0-11,0-22.08,0-33.12v-3.86H280.82c-.06,1.29-.16,2.5-.16,3.72,0,11.61,0,23.23,0,34.84,0,7.48-4.37,12.29-11,12.3s-11.08-4.88-11.1-12.25c-.05-12.75,0-25.51,0-38.53Z" transform="translate(-65.39 -59.68)"/></svg>