<svg id="Layer_1" data-name="Layer 1" xmlns="http://www.w3.org/2000/svg" viewBox="0 0 1008.97 511"><path d="M1114.34,363.48v20.7c-.58,4.76-1.08,9.54-1.76,14.28-5,34.81-19,65.55-42.32,91.88-27.36,30.92-61.43,50.19-102.16,57.44-6.64,1.18-13.38,1.84-20.07,2.75H927.32c-5.91-.74-11.85-1.28-17.72-2.26-36.9-6.17-69.06-22-95.52-48.49-39.69-39.67-57.16-87.89-52.08-143.72,3.4-37.48,18.07-70.6,43.12-98.74,33.28-37.38,75.16-57.52,125.13-59.95,34.85-1.7,67.62,6.43,97.44,24.62,45.85,28,74,68.5,83.9,121.43C1112.83,350.05,1113.44,356.79,1114.34,363.48Zm-39.21,10.18c-.17-75.72-61.82-137.3-137.45-137.3S800,298.34,800.22,374s61.83,137.31,137.45,137.31S1075.29,449.34,1075.13,373.66Z" transform="translate(-105.38 -39.52)"/><path d="M921.06,386c0,12.57,0,24.87,0,37.16a24.07,24.07,0,0,1-.3,4.81,10.82,10.82,0,0,1-11.84,8.76A10.58,10.58,0,0,1,899,426.23c-.16-12.08-.07-24.15-.08-36.23v-4.25H895q-18.1,0-36.22,0c-9.72,0-14.86-4.49-15.07-14.34-.35-16.55-.27-33.11-.11-49.67a10.56,10.56,0,0,1,11-10.87c6.35,0,10.9,4.59,11,11.63.16,12.19,0,24.38.06,36.57v4.31H899v-3.75q0-18.8,0-37.6a11,11,0,0,1,16.94-9.45c3.7,2.37,5.17,6,5.16,10.3,0,12.19,0,24.38,0,36.57v3.95h33.22V359.6c0-12.31,0-24.61,0-36.92,0-6.34,3.93-11.05,9.46-11.71,7.07-.85,12.55,3.91,12.6,11.23.11,12.42,0,24.84,0,37.26v3.93h33.28v-3.85c0-12.07-.06-24.15,0-36.22,0-8,4.82-12.84,11.95-12.41a10.63,10.63,0,0,1,10,9.31,37,37,0,0,1,.21,4.47q0,49.17,0,98.33a23.78,23.78,0,0,1-.56,6.15c-1.3,4.8-5.86,7.81-11,7.61a10.62,10.62,0,0,1-10.15-8.72,28.5,28.5,0,0,1-.38-5.14c0-11,0-22.08,0-33.12v-3.86H976.57c-.06,1.29-.16,2.5-.16,3.72,0,11.61,0,23.23,0,34.84,0,7.47-4.37,12.28-11,12.29s-11.08-4.87-11.1-12.24c0-12.76,0-25.51,0-38.54Z" transform="translate(-105.38 -39.52)"/><path d="M199.57,428.22c-4.33-1.64-9-2.68-12.9-5-11.38-6.84-17.07-17.23-17.13-30.55-.07-17.45,0-34.91,0-52.36v-5.17c-5.41,0-10.52-.05-15.64,0-3.95,0-7.84-.62-10.22-3.9-1.67-2.32-2.49-5.36-3.28-8.19-.45-1.62-.08-3.46-.08-5.66-5.5,0-10.64,0-15.78,0-11.3,0-19.06-7.75-19.13-19q0-6.08,0-12.14c.07-11,7.81-18.78,18.89-18.92,5.16-.06,10.32,0,16,0,0-2.14-.08-4,0-5.83a11.84,11.84,0,0,1,11.89-11.75c5.43-.14,10.86-.1,16.29-.15.11,0,.22-.12.77-.43.08-1.29.24-2.87.24-4.45q0-84.06,0-168.1c0-22.26,14.8-37.12,37-37,6.68,0,13.48-.3,20,.76C243.2,43,255,57.48,255,74.61q.06,85,0,170v5.08h15.3c9.56,0,14.2,4.63,14.2,14.12q0,28.65,0,57.3c0,9.32-4.62,13.94-14,14-5,0-10.05,0-15.53,0v4.42q0,25.8,0,51.6c0,19.12-10.14,32-28.67,36.52a3.93,3.93,0,0,0-1,.56Zm40.77-178.71c.09-.9.17-1.4.17-1.9q0-86.9,0-173.81c0-10.52-9-19.46-19.62-19.77-4.55-.14-9.1,0-13.65,0-15.06,0-23.3,8.14-23.3,23.11q0,84.06,0,168.11v4.13h17.81v-4.87q0-32.64,0-65.27c0-5.89,2.64-9.48,7.66-10.68,7.72-1.83,13.65,2.75,13.67,10.73q.08,33,0,66v4.22Zm.18,86.13a5.47,5.47,0,0,0-1.19-.43c-17.57,0-35.14,0-52.71-.12-2.25,0-2.74,1-2.73,3,.05,18.35-.21,36.7.12,55,.22,12.44,9.13,20.62,21.51,20.65,4.8,0,9.61,0,14.41,0A20.41,20.41,0,0,0,240.52,393c0-3.92,0-7.85,0-11.77Zm-100.44-55.5c-6.06,0-12-.27-17.79.12-3,.19-4.4,2.79-4.48,5.72-.11,4.29-.14,8.59,0,12.88.11,2.88,1.45,5.46,4.55,5.62,5.85.31,11.72.09,17.71.09Z" transform="translate(-105.38 -39.52)"/><path d="M339.73,286.06v28h-14V260.45a93.7,93.7,0,0,1,9.51.11,5.07,5.07,0,0,1,3,2.34c4.78,7.43,9.43,14.94,14.13,22.42.84,1.33,1.76,2.6,3.3,4.88V260.65h13.69v53.69a90.64,90.64,0,0,1-9.5-.12c-1.07-.11-2.27-1.39-2.94-2.43-5.5-8.6-10.9-17.27-16.33-25.92Z" transform="translate(-105.38 -39.52)"/><path d="M326,416V362.45c9.16,0,18.1-.39,27,.12,7.87.45,12.59,5.57,14.42,12.95,2.38,9.57,2.56,19.29-.4,28.79-2.15,6.9-7,11.25-14.33,11.58C343.91,416.29,335.08,416,326,416Zm14.1-41.05v28.53c2.47,0,4.72,0,7,0,4.79-.1,6.73-1.31,7.13-6a122.2,122.2,0,0,0,0-16.9c-.21-3.78-2.48-5.9-6.55-5.69C345.29,375,342.89,374.93,340.12,374.93Z" transform="translate(-105.38 -39.52)"/><path d="M339.89,194.33v18.06H326.15V158.72c7.54,0,15.18-.05,22.81,0a25.84,25.84,0,0,1,5.61.67,12.15,12.15,0,0,1,9.11,8.21c3.37,9.13,1.37,18.12-5.75,24.33,2.92,6.63,5.89,13.37,9.1,20.64-4.67,0-8.78.11-12.88-.09-.77,0-1.78-1.21-2.16-2.09-1.83-4.15-3.49-8.38-5.2-12.58S345.08,193.61,339.89,194.33Zm.15-11.48c3.75-.35,7.94,1.6,10-2.21,1.07-2,1.06-5.7-.16-7.46-2.3-3.32-6.32-1.61-9.85-1.65Z" transform="translate(-105.38 -39.52)"/><path d="M339.93,94.85v15.76H326.14v-53c9.75,0,19.55-.43,29.28.17,5.29.33,8.7,4.74,9.3,9.73a61.85,61.85,0,0,1-.22,18.33c-1.32,7.11-7,10.38-14.86,10.06C346.5,95.79,343.39,95.24,339.93,94.85ZM340,83.6c3.91-.92,8.72,1.94,10.65-2.22,1.34-2.87,1.28-8-.51-10.21-1.65-2-6.46-1.46-10.14-2.08Z" transform="translate(-105.38 -39.52)"/><path d="M302,84.4v11c-7,0-13.83.05-20.62-.08a2.6,2.6,0,0,1-1.76-1.79c-.19-3-.08-6-.08-9.11Z" transform="translate(-105.38 -39.52)"/><path d="M279.54,186.17H302v10.94c-7,0-13.76,0-20.54-.07a2.58,2.58,0,0,1-1.83-1.72C279.43,192.34,279.54,189.33,279.54,186.17Z" transform="translate(-105.38 -39.52)"/><path d="M302,400.52H279.79V389.77H302Z" transform="translate(-105.38 -39.52)"/></svg>