<svg width="46" height="46" fill="none" xmlns="http://www.w3.org/2000/svg"><path d="M36.033 0H9.967C4.462 0 0 4.462 0 9.967v26.066C0 41.538 4.462 46 9.967 46h26.066C41.538 46 46 41.538 46 36.033V9.967C46 4.462 41.538 0 36.033 0Z" fill="#00B900"/><path d="M39.675 20.976c0-7.494-7.513-13.59-16.747-13.59-9.235 0-16.748 6.096-16.748 13.59 0 6.72 5.957 12.347 14.007 13.416.544.12 1.288.36 1.476.828a3.43 3.43 0 0 1 .053 1.515l-.238 1.433c-.072.422-.337 1.656 1.45.901 1.786-.755 9.644-5.677 13.16-9.721 2.426-2.664 3.587-5.367 3.587-8.364" fill="#fff"/><path d="M19.524 17.352h-1.173a.326.326 0 0 0-.326.325v7.284a.326.326 0 0 0 .326.326h1.173a.327.327 0 0 0 .326-.326v-7.284a.327.327 0 0 0-.326-.325Zm8.101-.002h-1.188a.325.325 0 0 0-.326.327v4.335l-3.343-4.516-.027-.03-.023-.02h-1.334a.326.326 0 0 0-.325.326v7.284a.325.325 0 0 0 .325.326h1.177a.326.326 0 0 0 .326-.326V20.64l3.35 4.523c.021.032.049.06.08.08h.043a.321.321 0 0 0 .084 0h1.181a.326.326 0 0 0 .326-.325v-7.284a.326.326 0 0 0-.326-.325m-10.93 6.164h-3.193v-5.796a.325.325 0 0 0-.325-.325H12a.326.326 0 0 0-.326.325v7.284a.318.318 0 0 0 .092.226c.06.059.142.092.226.092h4.696a.325.325 0 0 0 .326-.326v-1.177a.327.327 0 0 0-.326-.326m17.41-4.27a.326.326 0 0 0 .326-.326v-1.173a.326.326 0 0 0-.326-.33h-4.692a.337.337 0 0 0-.226.093.33.33 0 0 0-.088.222v7.283a.33.33 0 0 0 .088.226.318.318 0 0 0 .226.092h4.692a.326.326 0 0 0 .326-.325v-1.177a.326.326 0 0 0-.326-.326h-3.193v-1.23h3.193a.33.33 0 0 0 .326-.33v-1.173a.326.326 0 0 0-.326-.326h-3.193v-1.234l3.193.034Z" fill="#00B900"/></svg>