<svg width="48" height="48" fill="none" xmlns="http://www.w3.org/2000/svg"><path clip-rule="evenodd" d="M16.436 18.16c.28-.477 1.83-2.211 2.936-2.159.33.03.622.233.86.47h0c.544.546 2.106 2.607 2.193 3.04.217 1.065-1.022 1.678-.643 2.75.965 2.42 2.63 4.125 4.994 5.113 1.046.389 1.645-.879 2.684-.658.424.09 2.437 1.688 2.969 2.246v0c.231.243.432.543.46.881.04 1.192-1.758 2.801-2.109 3.007-.827.606-1.906.595-3.221-.031-3.671-1.564-9.538-7.459-11.093-11.36-.596-1.34-.636-2.452-.03-3.298Z" stroke="#005A96" stroke-width="2" stroke-linecap="round" stroke-linejoin="round"/><path d="M26.281 15.836c3.29.374 5.89 3.032 6.259 6.402m-6.259-3.175c1.574.314 2.803 1.573 3.11 3.184" stroke="#EF6E0B" stroke-width="1.5" stroke-linecap="round" stroke-linejoin="round"/></svg>