<svg id="Layer_1" data-name="Layer 1" xmlns="http://www.w3.org/2000/svg" viewBox="0 0 751.12 377.91"><path d="M542.05,545.07c34.32,0,68.64,0,103-.05a16.45,16.45,0,0,1,13.47,6.34c3.4,4.12,4.56,8.77,2.85,14-4.33,13.28-8.58,26.58-13,39.84-3.14,9.48-10,15.49-18.78,19.63-7.62,3.61-15.78,5.11-24.1,5.9-.83.07-1.68,0-2.5.13-.56.08-1.44-.22-1.52.68,0,.37.45.84.79,1.19q6.59,6.82,13.2,13.64,13,13.46,26.08,26.9c.67.69,2,1.41,1.51,2.33s-1.82.44-2.8.44c-16.33,0-32.66,0-49,.06a7.27,7.27,0,0,1-6-2.79c-11.8-13.13-23.77-26.1-35.53-39.26-1.94-2.17-3.79-3.28-6.77-3.22-8.66.19-17.32,0-26,.08-3.56,0-3.58.05-4.73,3.59-4,12.33-7.93,24.68-12,37-1.49,4.47-.35,4.57-6.13,4.57q-79.47,0-158.94,0c-1.42,0-3.56.69-4.09-.59s1.49-2.36,2.47-3.41c7.35-7.94,14.85-15.74,22.12-23.74a7.29,7.29,0,0,1,6.06-2.6c12.83.1,25.66,0,38.49,0,1,0,2,0,3,0,3.59-.09,3.66-.11,2.64-3.65q-7.77-26.82-15.61-53.62c-.8-2.72-1-2.76-2.93-.65q-17.73,19-35.4,38Q330,649.41,308.06,673c-1.78,1.92-3.49,3.15-6.36,3.12-14.66-.16-29.33-.07-44-.07-.66,0-1.33,0-2,0-.48,0-1.19,0-1.39-.35-.43-.62.13-1.17.57-1.64l15.37-16.38,70-74.67c11.05-11.77,22.15-23.49,33.1-35.35a7.38,7.38,0,0,1,6.06-2.61c12,.11,24,0,36,.06,4.1,0,4.13,0,5.14,3.7q16.51,59.87,33,119.75c.47,1.7.55,4.69,1.79,4.7,1.83,0,1.69-2.8,2.22-4.42,7.07-21.65,14-43.34,21.1-65,1.47-4.48.49-4.06,5.92-4.06q55.74,0,111.46,0a20.41,20.41,0,0,0,4-.06c3.36-.66,6.21-1.89,7.24-5.78,1.28-4.81,3-9.5,4.5-14.27.86-2.78-.18-4.44-3-4.82a35.34,35.34,0,0,0-4.49-.06H446.81c-4.67,0-4.7,0-6-4.61-2.1-7.36-4.19-14.71-6.2-22.09-.77-2.81-.68-2.85,2-3,1.16-.05,2.33,0,3.5,0Z" transform="translate(-136.44 -451.05)"/><path d="M754.08,676.05c-28.65,0-57.31-.06-86,0-8.23,0-13.89-3.81-17.82-10.69a14.11,14.11,0,0,1-1.2-12c4.74-14.37,9.23-28.81,14-43.16,5.31-16,16.91-24.53,33.13-27.41a64.42,64.42,0,0,1,11.44-.8q53.48,0,107,0a21.66,21.66,0,0,0,4.49-.09c3-.63,5.56-1.81,6.48-5.28,1.11-4.18,2.66-8.23,3.91-12.37.93-3.07-.4-5.1-3.6-5.5a35.36,35.36,0,0,0-4.49-.07H685.48c-5.76,0-5.75,0-4-5.53,2.8-8.52,5.64-17,8.34-25.59.76-2.41,2-3.7,4.63-3.31a13.21,13.21,0,0,0,2,0q84.72,0,169.43-.06c7.56,0,13.66,2.39,18.18,8.49a15.57,15.57,0,0,1,2.55,15c-4.59,13.89-8.83,27.89-13.55,41.74-5.86,17.23-18.33,26.38-36.2,28.45a80.66,80.66,0,0,1-9.46.46q-53.22,0-106.45,0a25.26,25.26,0,0,0-4,.06c-3.11.49-5.6,1.75-6.59,5.17-1.2,4.15-2.71,8.21-4,12.33-1,3.28.28,5.4,3.69,5.81a33.15,33.15,0,0,0,4,0H850c6,0,6,0,4.2,5.75-2.6,8.07-5.18,16.14-7.8,24.21C845,676,845,676,840.54,676Z" transform="translate(-136.44 -451.05)"/><path d="M195.8,675.9c-12.16,0-24.31,0-36.47,0a32.18,32.18,0,0,1-12.59-2.78c-8.6-3.67-12-10.34-9.51-19.34,1.71-6.24,3.83-12.38,5.83-18.54,6.92-21.34,14.05-42.62,20.74-64.05,3.51-11.26,10.88-18.36,21.59-22.48a52.89,52.89,0,0,1,19-3.6q71.46,0,142.91,0c1.7,0,4.08-1,5,1s-1.5,3.08-2.68,4.31q-14.81,15.56-29.72,31c-.69.72-1.38,1.45-2.13,2.12-2.45,2.19-3.25,1.93-4.45-1.16-.84-2.14-.67-5-2.56-6.33-2.05-1.46-4.86-.56-7.32-.56q-45.48-.06-91,0c-1.16,0-2.34.09-3.49,0-2.55-.24-3.81.74-4.63,3.31-6.79,21.21-13.75,42.37-20.62,63.55-1.08,3.31-1,3.39,2.89,3.4q34.73,0,69.45,0c1.17,0,2.34,0,3.5,0s2.47-.33,2.95,1.13-.66,2.11-1.44,3c-7.41,7.88-14.86,15.73-22.21,23.67a7.47,7.47,0,0,1-6.1,2.6c-12.33-.12-24.65-.05-37-.05Z" transform="translate(-136.44 -451.05)"/><path d="M513.62,505.88c7-8.65,15-16.45,22.4-24.76,3-3.35,6.13-6.56,9.15-9.88,1.18-1.31,2.21-2,4.26-1.55,28.89,7,54.21,19.91,73.13,43.59a87.46,87.46,0,0,1,7.54,11.14c1.26,2.22,1.15,2.47-1.37,2.48q-15,.06-30,0c-4.16,0-8.73,1-12.35-.45-3.41-1.33-5.78-5.28-8.69-8-11.92-11-25.81-18.63-41.1-23.85a4.88,4.88,0,0,0-4.61.62c-5.38,3.31-10.8,6.55-16.21,9.82a3,3,0,0,1-2.32.67Z" transform="translate(-136.44 -451.05)"/><path d="M420.86,502.74c.64-8,1.33-15.92,1.87-23.89a3.7,3.7,0,0,1,3.19-3.78,332,332,0,0,1,38.07-8,256.08,256.08,0,0,1,39.8-2.73,231.15,231.15,0,0,1,32.8,2.68c.82.13,1.62.39,2.43.56,1.37.29,1.64.91.65,2-1.24,1.34-2.44,2.72-3.69,4.06-4.42,4.76-8.92,9.44-13.23,14.28a4.9,4.9,0,0,1-5.3,1.62c-21.07-4.39-42.26-4.56-63.56-1.95-6.95.86-13.81,2.09-20.7,3.26-3.15.54-5.53,1.56-6.75,4.92-1.07,2.94-2.87,5.62-4.37,8.4-.23.41-.68,1.09-.91,1-.89-.18-.35-1-.44-1.51a4.81,4.81,0,0,1,0-1Z" transform="translate(-136.44 -451.05)"/><path d="M417.47,481c-.31,3.49-.64,6.63-.86,9.78-.26,3.8.39,3.84-4.39,5.23a300.8,300.8,0,0,0-44.71,16.79c-5.7,2.7-11.33,5.53-17,8.38a12.23,12.23,0,0,1-4.64,1.61,250.58,250.58,0,0,0-27.14,3.67,5.94,5.94,0,0,1-1.45-.06,5.32,5.32,0,0,1,.92-1.06c5.28-3.46,10.5-7,15.89-10.31a369.49,369.49,0,0,1,77.64-35.74c1.1-.36,2.2-.74,3.32-1,2.23-.6,2.43-.41,2.41,2.11C417.5,480.73,417.47,481.06,417.47,481Z" transform="translate(-136.44 -451.05)"/><path d="M394.16,829l-6.47-.31c-.66,0-1.32-.14-2-.21.63-.07,1.26-.15,1.9-.2,6.64-.45,13.24-1.22,19.84-2.19,27.52-4,53.8-12.21,79.13-23.54a323.7,323.7,0,0,0,89.21-58.85c2.67-2.49,5.27-3.8,8.84-3.37,1.15.13,2.34-.08,3.49.05.89.09,2.23-.65,2.57.57.29,1-.94,1.64-1.64,2.3A322.1,322.1,0,0,1,518,793.57a318.83,318.83,0,0,1-76.86,28.8A266,266,0,0,1,394.16,829Z" transform="translate(-136.44 -451.05)"/><path d="M658.85,725.88c-5.65,0-11.3,0-16.94,0-2.41,0-2.63-.32-1.89-2.63,2.84-8.84,5.78-17.65,8.6-26.49.67-2.09,1.89-2.74,4-2.73,10.3.1,20.6,0,30.89.07,5.12,0,6.52,2.06,5.05,6.88a19.11,19.11,0,0,1-1.07,3.31c-2.19,4.16-.75,9.07-2.81,13.26-.43.88-.61,1.89-1,2.81a7.87,7.87,0,0,1-8,5.55Zm5.41-12h0c-3,0-6-.07-9,0-1.35,0-2.77,2.18-2.54,3.62s1.42,1.14,2.34,1.14c5.16,0,10.32,0,15.48,0a3.48,3.48,0,0,0,3.7-2.66c.49-1.43.12-2.21-1.51-2.19C669.92,713.91,667.09,713.9,664.26,713.9Zm1.68-7.6h3.46c1.49,0,3,0,4.46,0,2.11,0,2.93-1.48,3-3.25,0-2.1-1.79-1.48-3-1.52-2.63-.1-5.28,0-7.92,0-2.14,0-4.29,0-6.43,0s-2.59,2-2.65,3.51,1.6,1.21,2.63,1.25C661.65,706.35,663.79,706.3,665.94,706.3Z" transform="translate(-136.44 -451.05)"/><path d="M519.85,451.05c31.48,1.27,60.8,7,87.75,21.91,21,11.63,37.81,27.58,49.09,49,2.89,5.51,2.57,4.94-2.7,4.94-2.83,0-6,.64-8.39-.39s-2.94-4.6-4.32-7c-12.14-21.33-29.64-37-51.24-48.21-17.73-9.22-36.64-14.75-56.4-17.49-6.75-.93-13.5-1.88-20.31-2.28-.49,0-1,0-1.49-.06.53,0,1.05-.09,1.58-.12Z" transform="translate(-136.44 -451.05)"/><path d="M551,740.31c3.49,0,7,0,10.48,0,.61,0,1.47-.11,1.51.81,0,.37-.43.86-.79,1.16-4.86,4-9.67,8.13-14.65,12a331.56,331.56,0,0,1-41.13,27.17c-2.34,1.32-4,1.64-6.16-.36a77.46,77.46,0,0,0-7.54-5.73c-1.16-.85-1-1.52.11-2.2,4.63-2.93,9.31-5.78,13.9-8.78A242.17,242.17,0,0,0,534.89,743a9.36,9.36,0,0,1,7.16-2.71c3,.17,6,0,9,0Z" transform="translate(-136.44 -451.05)"/><path d="M419.74,814.21c-1.06.29-1.7-.32-2.05-1.41-.05-.16-.07-.33-.13-.48-3-7.46-3-7.42,4.65-9.39a274,274,0,0,0,57-22.13c.59-.31,1.15-.68,1.75-.95,1.38-.64,1.55-1.47.63-2.7-1.59-2.13-3.13-4.3-4.6-6.51-.4-.6-1.29-1.15-.74-2.13.54.35,1.1.65,1.61,1q6.54,5,13.05,10c2.11,1.62,4.19,3.28,6.35,4.83,1.34,1,.74,1.55-.28,2-6.43,3.1-12.78,6.37-19.32,9.22a312.16,312.16,0,0,1-53.81,17.8C422.54,813.75,421.22,813.94,419.74,814.21Z" transform="translate(-136.44 -451.05)"/><path d="M584.47,725.88c-4.33,0-8.65,0-13,0a13.61,13.61,0,0,1-3.45-.34c-2.78-.76-4.07-2.56-3.27-5.21,2.18-7.14,4.55-14.22,7-21.29.75-2.19,2.74-3.32,4.82-4a18.7,18.7,0,0,1,6.37-1c7.64.07,15.29,0,22.94,0a19.2,19.2,0,0,1,3.48.19c4,.77,5.43,2.85,4.25,6.75-1.92,6.36-3.94,12.69-6.16,19-1.54,4.35-5.31,5.74-9.52,5.9C593.45,726,589,725.88,584.47,725.88Zm7.92-24.12v0c-2.82,0-5.63,0-8.45,0-1.66,0-2.81.4-3.35,2.2-1.17,4-2.52,7.88-3.78,11.81-.52,1.63,0,2.55,1.8,2.55,5.47,0,10.94,0,16.4,0a3,3,0,0,0,3.21-2.44c1.33-4.09,2.64-8.18,4-12.26.43-1.32-.12-1.85-1.37-1.86C598,701.74,595.21,701.76,592.39,701.76Z" transform="translate(-136.44 -451.05)"/><path d="M369.73,819.76c-15.86,0-31.52-1.57-46.87-5.75l-2.87-.8c-1.3-.37-1.29-1.06-.82-2.23,2.56-6.42,2.65-6.51,9.3-4.83A160,160,0,0,0,357,810.29c14.69,1,29.21-.53,43.7-2.62a21.66,21.66,0,0,1,2.43-.54c2.25-.07,2.68-1.37,2.61-3.29-.13-3.16-.14-6.32-.16-9.48,0-.59-.15-1.25.44-1.7a6.35,6.35,0,0,1,.7,1.24c2.1,6.47,4.12,13,6.29,19.43.6,1.8.07,2.28-1.66,2.58A236.61,236.61,0,0,1,369.73,819.76Z" transform="translate(-136.44 -451.05)"/><path d="M736.76,725.88H724.29a10.32,10.32,0,0,1-4.38-.67,3.58,3.58,0,0,1-2.45-3.88,13.22,13.22,0,0,1,.56-2.92c2.35-7.26,4.81-14.49,7.1-21.77.59-1.88,1.51-2.67,3.52-2.62,9.44.25,8.18-1.32,5.63,7.19-1.43,4.77-3.16,9.45-4.63,14.2-.78,2.54-.54,2.83,2.2,2.87,5.16.07,10.31-.08,15.46.06,2.29.07,3.25-1,3.86-3,1.81-5.86,3.69-11.71,5.6-17.54,1.24-3.75,1.29-3.73,5.17-3.79,6.79-.11,6.79-.11,4.65,6.41-2,6-3.93,12-6,17.95-1.7,5.05-4.6,7.28-9.9,7.44C746.08,726,741.42,725.88,736.76,725.88Z" transform="translate(-136.44 -451.05)"/><path d="M436.54,725.88h-13a10,10,0,0,1-3.94-.5c-2.4-1-3.48-2.64-2.72-5.1,2.52-8.08,5.21-16.11,7.81-24.18.48-1.49,1.44-2,3-2.08,8.51-.74,8.57-.71,5.93,7.45-1.53,4.74-3.11,9.46-4.68,14.19-.53,1.6-.2,2.61,1.69,2.61,5.66,0,11.32,0,17,0,2,0,2.43-1.38,2.9-2.84q2.86-8.75,5.73-17.5c1.29-3.89,1.3-3.88,5.53-3.91.83,0,1.67,0,2.5,0,3.65.1,3.68.11,2.56,3.65-2.15,6.81-4.29,13.62-6.54,20.4-1.84,5.53-4.83,7.66-10.75,7.77C445.19,725.94,440.87,725.88,436.54,725.88Z" transform="translate(-136.44 -451.05)"/><path d="M359.31,721.73c-1.83,0-3.66.07-5.48,0-2.93-.15-5.64,0-7.41,2.87-1.06,1.71-2.94,1.43-4.54,1.26-2.35-.24-4.84.92-7-.69.89-2.24,2.88-3.58,4.43-5.25,7-7.57,14.23-14.91,21.12-22.56,2.23-2.47,4.5-3.75,7.75-3.3a15,15,0,0,0,1.5,0c4.26,0,4.3,0,5.42,4,1.9,6.7,3.73,13.43,5.61,20.14.53,1.92,1.13,3.82,1.69,5.73.36,1.22,0,1.92-1.36,1.93-2,0-4,0-6,0s-3.68,0-4.14-2.42c-.33-1.73-1.7-1.77-3.09-1.76C365,721.74,362.14,721.73,359.31,721.73Zm3.2-7.69V714c1.48,0,3,0,4.44,0,.77,0,1.21-.49,1-1.27-.8-2.5-.74-6.08-2.74-7.13-1.67-.87-3.08,2.68-4.76,4.1a17.29,17.29,0,0,0-2,2.15c-.4.49-1.06,1.21-.92,1.61.3.91,1.33.59,2.09.63C360.53,714.08,361.52,714,362.51,714Z" transform="translate(-136.44 -451.05)"/><path d="M321.62,793.94c-1.7,5.22-4.37,10-6.55,15-.71,1.62-1.64,2.35-3.47,1.68-20.42-7.41-38.15-18.61-51.22-36.37a9.19,9.19,0,0,1-.85-1.22c-.41-.8,0-1.25.79-1.26,3.32,0,6.65-.06,10,0,1.75,0,2.41,1.63,3.36,2.72,9.65,11.13,21.52,19.15,34.89,25.14,2.79,1.25,4.78,1.15,7-1.11,1.77-1.77,3.22-4.22,6.15-4.49Z" transform="translate(-136.44 -451.05)"/><path d="M805.44,694.05a2.8,2.8,0,0,0,.5,0c4.37-.69,7.62.7,9.83,4.75,1,1.83,2.15,4.43,4.17,4.65s3.54-2.14,5.33-3.29c.42-.27.83-.56,1.23-.85,8-5.77,8-5.77,17.84-5.24.61,0,1.45-.23,1.73.44s-.44,1.13-1,1.51l-15,10.7a18.68,18.68,0,0,1-2.06,1.4c-4.38,2.32-6.63,5.95-7.93,10.76-2,7.34-2.3,7.26-9.62,7-3-.1-3-.11-2.14-3a76.76,76.76,0,0,1,2.54-8,4.42,4.42,0,0,0-.82-5c-3.37-4.32-6.61-8.74-9.89-13.13-.5-.66-1.29-1.4-.93-2.18s1.44-.43,2.21-.46C802.78,694,804.11,694.05,805.44,694.05Z" transform="translate(-136.44 -451.05)"/><path d="M520.79,694.05c5.16,0,10.32,0,15.48,0,3.25,0,3.25.09,2.28,3.39-.19.63-.46,1.25-.61,1.89-.35,1.58-1.39,2.12-2.9,2.11-2.83,0-5.67.17-8.49,0-2.6-.19-3.86.8-4.6,3.29-1.73,5.9-3.7,11.72-5.6,17.56-1.15,3.54-1.17,3.54-4.77,3.61-7.09.15-7.08.15-4.91-6.49,1.7-5.21,3.35-10.44,5.07-15.65.48-1.46.12-2.23-1.46-2.24-2.83,0-5.66,0-8.49,0-1.71,0-2.56-.58-1.8-2.42a12.66,12.66,0,0,0,.62-1.89c.54-2.23,1.68-3.26,4.2-3.17C510.13,694.19,515.46,694.05,520.79,694.05Z" transform="translate(-136.44 -451.05)"/><path d="M513.5,505.75l-.11.38.23-.25Z" transform="translate(-136.44 -451.05)"/><polygon points="185.28 343.01 185.32 342.71 185.19 342.89 185.28 343.01"/></svg>