<svg id="Layer_1" data-name="Layer 1" xmlns="http://www.w3.org/2000/svg" viewBox="0 0 751.23 378.43"><defs><style>.cls-1{fill:#201e3f;}.cls-2{fill:#1c65a5;}.cls-3{fill:#cf0505;}.cls-4{fill:#236aa8;}.cls-5{fill:#ed222c;}</style></defs><path class="cls-1" d="M542,544.92c34.32,0,68.65.06,103,0a16.62,16.62,0,0,1,13.82,6.63,13.86,13.86,0,0,1,2.66,13.59c-4.35,13.43-8.66,26.87-13.12,40.26-3.1,9.29-9.93,15.2-18.48,19.27-8.21,3.92-17,5.54-26.06,6-.79,0-2,.05-2.25.48-.41.84.7,1.34,1.25,1.91q18.75,19.4,37.52,38.77a10.59,10.59,0,0,1,1,1.07c.65.89,2.22,1.37,1.77,2.67-.13.39-1.8.26-2.77.35a8.32,8.32,0,0,1-1,0c-15.83,0-31.66-.06-47.48.06a8.18,8.18,0,0,1-6.83-3.1c-11.75-13.16-23.72-26.14-35.51-39.27a7.56,7.56,0,0,0-6.37-2.92q-13,.28-26,0c-2.75-.06-4,.58-4.89,3.47-3.82,12.54-8,25-12.05,37.45-1.39,4.28-1.41,4.3-5.78,4.3q-79.73,0-159.46,0c-1.37,0-3.36.8-4-.64-.5-1.13,1.39-2,2.26-3,7.68-8.3,15.44-16.54,23.1-24.86a4.93,4.93,0,0,1,4.35-1.85c1,.09,2,0,3,0h39c4.19,0,4.23-.06,3.11-3.93Q400,621.81,394.24,602c-1.29-4.46-2.55-8.94-3.89-13.39-.9-3-1-3.05-3.11-.83-7.39,7.89-14.74,15.84-22.11,23.76Q336.55,642.21,308,673a8.42,8.42,0,0,1-6.87,3c-14.83-.13-29.66,0-44.49-.09-.86,0-2.15.59-2.52-.65-.26-.83.78-1.36,1.33-2l63.86-68.1c18-19.17,36-38.31,53.9-57.57a7.86,7.86,0,0,1,6.47-2.76c12,.12,24,.18,36,0,3.16-.06,4.2,1,5,3.95Q437,608.66,453.58,668.45a3.56,3.56,0,0,0,.09.49c.74,1.35.15,3.9,2,3.95,1.27,0,1.34-2.39,1.77-3.72,7.06-21.63,14-43.3,21-64.92,1.77-5.41.39-4.62,6.41-4.63q55.74,0,111.47,0a19.45,19.45,0,0,0,3.5,0c3.34-.63,6.27-1.7,7.33-5.6,1.3-4.81,3-9.49,4.51-14.25,1-3.09,0-4.71-3.17-5.08a35.57,35.57,0,0,0-4,0H448.11c-1.17,0-2.34-.06-3.5,0-1.74.11-2.65-.47-3.15-2.32q-3.34-12.52-7-24.93c-.7-2.33.25-2.55,2.07-2.46,1.16.06,2.33,0,3.49,0Z" transform="translate(-136.38 -450.78)"/><path class="cls-2" d="M753.74,675.91c-28.49,0-57-.08-85.47.05-8.46,0-14.19-3.9-18.13-11a14,14,0,0,1-1-11.56c4.74-14.51,9.27-29.09,14.13-43.56,5.36-16,17.06-24.36,33.27-27.2a66.53,66.53,0,0,1,11.44-.76h107c1.17,0,2.34.06,3.5,0a7.36,7.36,0,0,0,7.22-5.58c1.3-3.95,2.64-7.88,3.87-11.84,1.08-3.5-.4-5.53-4.18-5.83-1.16-.09-2.33,0-3.5,0H685.87c-6.17,0-6.18,0-4.23-5.9q4-12.06,8-24.11c1.48-4.46,1.49-4.48,6.2-4.48h85.47c28.32,0,56.64.07,85,0,7.77,0,13.93,2.75,18.34,9.14a15.2,15.2,0,0,1,2.19,14.18c-4.63,14-8.88,28.18-13.67,42.15-5.9,17.19-18.39,26.27-36.25,28.38a89.21,89.21,0,0,1-10.46.48H720.91a33.84,33.84,0,0,0-3.49,0c-3.36.35-6,1.59-7,5.25-1.18,4.15-2.7,8.21-4,12.32-1,3.07.16,5.16,3.24,5.71a23.06,23.06,0,0,0,4,0H850.06c1.17,0,2.34.05,3.5,0,1.89-.11,2.28.74,1.74,2.4-3.23,10-6.47,19.89-9.63,29.87a2.26,2.26,0,0,1-2.47,1.88c-1.16,0-2.33,0-3.5,0Z" transform="translate(-136.38 -450.78)"/><path class="cls-1" d="M275.58,544.92q36,0,72,.05c1.66,0,4-1.1,4.85,1.17.66,1.84-1.46,2.79-2.56,3.94q-14.84,15.52-29.74,31-.87.9-1.77,1.77c-3.17,3-3.88,2.87-5.22-1.12-2.16-6.4-2.16-6.4-8.69-6.4h-94c-6.23,0-5,0-6.53,4.68-6.61,20.2-13.09,40.45-19.63,60.68-.15.48-.4.92-.54,1.4-.95,3.26-.87,3.39,2.35,3.51,1,0,2,0,3,0q34.25,0,68.49,0c1.66,0,4.05-1,4.88,1.06s-1.59,3-2.77,4.31q-10.17,11-20.46,21.9c-1.45,1.54-2.75,3.08-5.36,3.07-25.16-.15-50.32-.13-75.47-.26a29.71,29.71,0,0,1-12.07-2.88c-8.29-3.73-11.58-10.31-9.2-19.08,1.69-6.24,3.81-12.37,5.81-18.52,6.91-21.34,14.06-42.59,20.69-64,3.68-11.89,11.61-19.12,22.85-23.17a54.55,54.55,0,0,1,18.6-3.16Q240.34,545,275.58,544.92Z" transform="translate(-136.38 -450.78)"/><path class="cls-3" d="M608.16,526.77c-6,0-12-.15-18,.07a8,8,0,0,1-6.9-2.89c-12.25-13.45-27.43-22.47-44.38-28.73-3-1.09-5.43-1.31-8.25.69-4.2,3-8.78,5.41-13.19,8.08-.7.43-1.53,1.2-2.22.54-.93-.89.39-1.31.81-1.77q14.67-16,29.41-32a3.47,3.47,0,0,1,3.87-1.27c29.09,7,54.55,20,73.51,43.94a91.91,91.91,0,0,1,7.26,10.74c1,1.81.91,2.64-1.43,2.62C621.82,526.73,615,526.77,608.16,526.77Z" transform="translate(-136.38 -450.78)"/><path class="cls-3" d="M501.44,464.15a258.28,258.28,0,0,1,35.25,2.74c.82.13,1.63.36,2.44.54,1.31.29,1.66.86.64,2q-9,9.66-18,19.37c-1.26,1.37-2.7,1-4.16.68A182.28,182.28,0,0,0,471,486a268.32,268.32,0,0,0-39,5,6.33,6.33,0,0,0-5.2,4c-1.37,3.19-3.16,6.2-4.79,9.28-.21.4-.64,1-.89,1-1-.15-.46-1-.42-1.5.65-8.45,1.43-16.89,2-25.34.17-2.36,1.55-3,3.45-3.51A320.59,320.59,0,0,1,463.7,467,285.32,285.32,0,0,1,501.44,464.15Z" transform="translate(-136.38 -450.78)"/><path class="cls-3" d="M417.49,480.37c-.35,4.26-.86,7.74-.85,11.22,0,2.53-1.13,3.49-3.31,4.08a266.57,266.57,0,0,0-27.39,9.15,298.75,298.75,0,0,0-30.43,13.71c-4.58,2.39-9.09,4.36-14.48,4.65-7.12.37-14.18,1.79-21.27,2.72-.58.07-1.42.2-1.69-.49s.57-.6.94-.84a366,366,0,0,1,94.74-46l.47-.17C417.63,477.45,417.63,477.45,417.49,480.37Z" transform="translate(-136.38 -450.78)"/><path class="cls-4" d="M391.15,829.1H379.67c-.32,0-.83-.23-.94-.1-.43.5-.4-.47-.14.13.05.11.68.13.88,0,1.18-.9,2.54-.61,3.85-.69,41.45-2.4,80.33-14.17,117.25-32.7a311.83,311.83,0,0,0,76.18-53.26C579.36,740,582,740,585,740.14c2,.08,5-1.11,5.8.74.62,1.5-2.38,2.8-3.82,4.12-40.63,37.23-87.79,62.46-141.1,76.17A249.74,249.74,0,0,1,391.15,829.1Z" transform="translate(-136.38 -450.78)"/><path class="cls-4" d="M518.49,450.78c32.15,1,63,7,91.29,23.2C630,485.59,646.05,501.39,657,522.16c.38.74.73,1.5,1.13,2.22.89,1.62.57,2.5-1.43,2.4-.33,0-.66,0-1,0-3.33,0-7,.81-9.9-.33s-3.52-5.34-5.16-8.17c-11-18.89-26.31-33.33-45.13-44.12-19.27-11.05-40.13-17.42-62.07-20.52-7.9-1.11-15.83-1.85-23.78-2.46a14.8,14.8,0,0,0-2.1.13c.66,0,1.33.09,2,.05C512.51,451.19,515.5,451,518.49,450.78Z" transform="translate(-136.38 -450.78)"/><path class="cls-2" d="M658.75,725.77c-5.5,0-11-.06-16.49,0-2.1,0-3.1-.31-2.27-2.78,3-8.81,5.82-17.67,8.64-26.53a3.22,3.22,0,0,1,3.58-2.61c10.65.09,21.31,0,32,.08,4.39,0,5.78,2.25,4.52,6.49a21.68,21.68,0,0,1-1.18,3.79c-2.22,4.32-1.19,9.24-2.8,13.75-1.83,5.13-4.78,8.32-11,7.86C668.76,725.48,663.74,725.77,658.75,725.77Zm8.34-24.64c-2.32,0-4.64-.07-7,0a3.73,3.73,0,0,0-3.45,3.88c.23,2.12,2,1.3,3.11,1.34,3.14.11,6.29,0,9.43,0,1.66,0,3.32.06,5-.07,2.12-.17,2.69-2,2.76-3.56.1-1.95-1.68-1.6-2.92-1.63C671.72,701.09,669.41,701.13,667.09,701.13Zm-2.52,12.64v0c-3.14,0-6.29-.12-9.43,0-2.24.12-2.28,2.18-2.35,3.7s1.38,1.07,2.28,1.08c5.13,0,10.26,0,15.39,0,1.65,0,2.89-.46,3.57-2.07s1-2.89-1.52-2.82S667.22,713.77,664.57,713.77Z" transform="translate(-136.38 -450.78)"/><path class="cls-5" d="M563.49,741.67a11,11,0,0,0-1.84,1.12c-6.22,5.26-12.52,10.44-19.07,15.29a349.89,349.89,0,0,1-36.43,23.49c-2.17,1.22-3.76,1.32-5.7-.42a69.91,69.91,0,0,0-7.17-5.39c-1.74-1.2-1.75-2,.12-3.08,6.76-3.91,13.25-8.25,19.66-12.72a266.62,266.62,0,0,0,22.36-17.54c1.56-1.35,3-2.38,5.26-2.33,6.82.12,13.64,0,20.47.06C561.89,740.15,562.84,739.81,563.49,741.67Z" transform="translate(-136.38 -450.78)"/><path class="cls-5" d="M477.69,769.66c6.91,4.33,12.94,9.86,19.55,14.59,1.78,1.28.34,1.82-.56,2.29-6.62,3.46-13.41,6.58-20.26,9.55A317.73,317.73,0,0,1,423,813.59c-1,.23-2,.33-2.94.55-.66.15-1.47.46-1.81-.23a25.89,25.89,0,0,1-2.67-8.48c-.13-1.34,1.6-1.38,2.71-1.65a249.67,249.67,0,0,0,29-9,274.8,274.8,0,0,0,31.39-13.95c3.44-1.79,4.66-1.38,1.54-5.58-1.19-1.59-2.15-3.35-3.21-5A4.43,4.43,0,0,0,477.69,769.66Z" transform="translate(-136.38 -450.78)"/><path class="cls-4" d="M584.09,725.78c-4.49,0-9,.09-13.46,0-5.34-.13-6.85-2.18-5.32-7.23,1.73-5.71,3.75-11.34,5.36-17.08,1.44-5.18,5.16-7.33,10-7.47,9.13-.28,18.28-.23,27.42,0,5.31.12,7,2.84,5.41,7.88q-2.62,8.29-5.43,16.54c-1.71,5-4.68,7.15-10,7.4h-14Zm8.19-24.13c-2.82,0-5.64,0-8.45,0a2.84,2.84,0,0,0-3.25,2.3c-1.08,3.81-2.29,7.59-3.57,11.34-.62,1.81-.51,2.85,1.75,2.83,5.46,0,10.93-.11,16.39,0,2,.06,2.62-1.11,3.1-2.54,1.32-3.91,2.48-7.88,3.86-11.76.73-2.08-.35-2.21-1.88-2.2C597.58,701.66,594.93,701.65,592.28,701.65Z" transform="translate(-136.38 -450.78)"/><path class="cls-5" d="M371.69,819.69c-18.19,0-34-1.68-49.47-5.88-.79-.22-1.61-.4-2.38-.7-.43-.17-1.15-.71-1.11-.82a63.1,63.1,0,0,1,3.13-6.72c.86-1.5,2.38-.69,3.6-.34,13.7,3.86,27.75,5.26,41.89,5.27a199.09,199.09,0,0,0,33.2-3c5.26-.89,5.25-.95,5.17-6.6,0-2.65-.06-5.31-.06-8a3.48,3.48,0,0,1,.4-1.05,4.1,4.1,0,0,1,.46.81c2.25,6.94,4.47,13.89,6.72,20.83.51,1.56-.16,2-1.62,2.23-6.41.88-12.78,2.13-19.22,2.72C384.8,819.2,377.18,820.12,371.69,819.69Z" transform="translate(-136.38 -450.78)"/><path class="cls-4" d="M436.31,725.78c-4.5,0-9,.1-13.49,0-5.59-.15-7-2.28-5.31-7.63,2.23-7,4.64-13.85,6.73-20.84.74-2.48,1.79-3.46,4.48-3.46,7.35,0,7.36-.15,5.09,7-1.51,4.74-3.09,9.47-4.57,14.23-.9,2.91-.85,3,2.29,3.05,5,.06,10-.1,15,.07,2.23.07,3.3-.76,4-2.82,1.89-6,4.07-11.93,5.81-18,.71-2.5,1.66-3.51,4.39-3.52,7.42,0,7.43-.17,5.17,6.91-1.87,5.84-3.7,11.7-5.65,17.52-1.75,5.23-4.77,7.4-10.4,7.51C445.3,725.85,440.8,725.78,436.31,725.78Z" transform="translate(-136.38 -450.78)"/><path class="cls-4" d="M737.09,725.78c-4.5,0-9,.08-13.5,0-5.64-.12-7.2-2.27-5.52-7.64,2.24-7.14,4.63-14.22,6.87-21.35.62-2,1.5-2.9,3.83-3,8.13-.19,8.12-.31,5.61,7.24-1.52,4.57-3.1,9.13-4.53,13.73-.87,2.82-.56,3.24,2.32,3.29,5,.08,10-.13,15,.09,2.6.12,3.46-1.18,4.11-3.26,1.88-6,4-12,5.74-18,.69-2.37,1.9-3,4.26-3,7.62-.07,7.63-.17,5.21,7.16-1.93,5.84-3.85,11.68-5.83,17.5-1.62,4.75-4.62,7.1-9.56,7.25-4.66.15-9.33,0-14,0Z" transform="translate(-136.38 -450.78)"/><path class="cls-4" d="M377.18,725.78c-2.59-.22-5.89,1.19-6.67-3.11-.23-1.26-1.55-1-2.5-1-5.66,0-11.32,0-17,0-1.23,0-2.44.17-3.07,1.26-2,3.43-5.25,3-8.37,2.87-1.6,0-4,.8-4.6-.54-.74-1.59,1.61-2.57,2.68-3.73,7.79-8.43,15.76-16.68,23.38-25.25,2.46-2.77,5.26-2.32,8.18-2.34,4.74,0,4.77,0,6,4.43q3.35,12,6.62,24c.93,3.39.9,3.4-2.69,3.47Zm-15.08-11.9c1.43,0,2.59,0,3.75,0,1.42,0,2.29-.43,1.78-2-.73-2.32-.65-5.55-2.66-6.57-1.12-.57-3,2.55-4.43,4.15-1,1.19-3.35,2.18-2.67,3.78S360.83,713.6,362.1,713.88Z" transform="translate(-136.38 -450.78)"/><path class="cls-5" d="M266.24,771.6c3.51-1,6.14,1.11,8.9,4.29,9.43,10.84,21.31,18.34,34.43,24a4.1,4.1,0,0,0,5.27-1c1.63-1.64,3.43-3.13,5.17-4.68.35-.3.78-.66,1.23-.3s.19.91,0,1.35c-2.13,4.67-4.33,9.32-6.41,14-1,2.34-2.54,1.42-4.11.86a114.42,114.42,0,0,1-34.22-19,90.13,90.13,0,0,1-14.9-15.34c-.86-1.12-2.61-2.28-1.85-3.76.58-1.12,2.43-.39,3.72-.5C264.12,771.55,264.78,771.6,266.24,771.6Z" transform="translate(-136.38 -450.78)"/><path class="cls-4" d="M812.38,725.78c-5.15,0-5.65-.24-3.46-5,3-6.38,2.24-11.46-2.79-16.39-2.59-2.53-4.48-5.77-6.65-8.73-.79-1.09-.61-1.8.92-1.79,3.33,0,6.66.06,10,0,1.58,0,2.39.81,3.21,1.94,1.56,2.16,3.25,4.22,4.8,6.38,1,1.34,1.77,1.63,3.19.49,2.33-1.88,5-3.38,7.25-5.3a13.66,13.66,0,0,1,11-3.51c2.25.28,4.56-.32,6.81.34-1.07,2.25-3.44,3-5.25,4.32-5.21,3.87-10.48,7.66-15.85,11.31-2.17,1.49-3.75,3.13-4.26,5.81a39.08,39.08,0,0,1-1.59,4.72C817.9,725.79,817.9,725.79,812.38,725.78Z" transform="translate(-136.38 -450.78)"/><path class="cls-4" d="M520.8,693.89c5.49,0,11,0,16.48,0,1.79,0,2.25.49,1.75,2.37-1.38,5.13-1.3,5.13-6.65,5.2-3,0-6.52-1.09-8.79.48-2.45,1.7-2.41,5.59-3.44,8.53-1.47,4.23-2.81,8.51-4.08,12.8-.56,1.89-1.56,2.51-3.55,2.58-8.17.29-8.17.37-5.61-7.46q2.31-7.1,4.61-14.2c.62-1.89.06-2.8-2-2.75-2.66.07-5.32,0-8,0-1.5,0-2-.63-1.72-2.19.88-4.59,1.74-5.34,6.55-5.35Z" transform="translate(-136.38 -450.78)"/><path class="cls-5" d="M476.71,768.68c-.3.23-.83.1-.75-.08.36-.9.44,0,.65.15Z" transform="translate(-136.38 -450.78)"/><path class="cls-5" d="M477.05,770.25c-.43-.46-.83-.92-.34-1.57l-.1.07a1.14,1.14,0,0,1,1.08.91A4.43,4.43,0,0,1,477.05,770.25Z" transform="translate(-136.38 -450.78)"/></svg>